<svg width="320" height="171" viewBox="0 0 320 171" fill="none" xmlns="http://www.w3.org/2000/svg">
<path d="M58.4126 79.9987H72.2701L100.439 0.488281H87.1499L65.7957 63.6423L43.8735 0.488281H30.2432L58.4126 79.9987Z" fill="#FAFAFA"/>
<path d="M106.705 79.9987H119.541V50.3527H133.966L154.866 79.9987H170.2L148.619 49.3304C160.091 46.4907 166.906 38.0853 166.906 25.5908C166.906 9.91594 156.229 0.488281 138.623 0.488281H106.705V79.9987ZM119.541 38.994V12.3013H138.737C148.732 12.3013 154.071 17.0719 154.071 25.5908C154.071 34.2234 148.732 38.994 138.737 38.994H119.541Z" fill="#FAFAFA"/>
<path d="M194.494 79.9987H207.329V12.4148H231.183V0.488281H170.528V12.4148H194.494V79.9987Z" fill="#FAFAFA"/>
<path d="M239.513 79.9987H289.377V68.0721H252.348V0.488281H239.513V79.9987Z" fill="#FAFAFA"/>
<path d="M2.96649 159.64H9.32732C10.8039 159.64 11.9398 160.776 11.9398 162.253V168.386C11.9398 169.863 13.1893 170.999 14.6659 170.999H32.4989C33.9755 170.999 35.1114 169.863 35.1114 168.386V162.253C35.1114 160.776 36.2473 159.64 37.7239 159.64H44.0847C45.5613 159.64 46.6972 160.776 46.6972 162.253V168.386C46.6972 169.863 47.8331 170.999 49.3097 170.999H67.2563C68.7329 170.999 69.8688 169.863 69.8688 168.386V162.253C69.8688 160.776 71.0047 159.64 72.4813 159.64H78.8421C80.3187 159.64 81.4546 158.504 81.4546 157.028V91.4883H69.8688V157.028C69.8688 158.504 68.7329 159.64 67.2563 159.64H49.3097C47.8331 159.64 46.6972 158.504 46.6972 157.028V91.4883H35.1114V157.028C35.1114 158.504 33.9755 159.64 32.4989 159.64H14.5523C13.0757 159.64 11.9398 158.504 11.9398 157.028V91.4883H0.354004V157.028C0.354004 158.504 1.48987 159.64 2.96649 159.64Z" fill="#FAFAFA"/>
<path d="M158.285 102.847H151.924C150.448 102.847 149.312 101.711 149.312 100.234V94.1008C149.312 92.6241 148.176 91.4883 146.699 91.4883H105.581C104.104 91.4883 102.969 92.6241 102.969 94.1008V100.234C102.969 101.711 101.833 102.847 100.356 102.847H93.9952C92.5186 102.847 91.3828 103.983 91.3828 105.459V170.999H102.969V105.459C102.969 103.983 104.104 102.847 105.581 102.847H146.699C148.176 102.847 149.312 103.983 149.312 105.459V122.952C149.312 124.428 148.176 125.564 146.699 125.564H140.338C138.862 125.564 137.726 126.7 137.726 128.177V134.31C137.726 135.787 138.862 136.923 140.338 136.923H146.699C148.176 136.923 149.312 135.787 149.312 134.31V128.177C149.312 126.7 150.448 125.564 151.924 125.564H158.285C159.762 125.564 160.898 124.428 160.898 122.952V105.459C160.898 103.983 159.762 102.847 158.285 102.847ZM114.554 134.31C114.554 135.787 115.69 136.923 117.167 136.923H123.528C125.004 136.923 126.14 138.059 126.14 139.535V145.669C126.14 147.146 127.276 148.281 128.753 148.281H135.113C136.59 148.281 137.726 149.417 137.726 150.894V157.028C137.726 158.504 138.862 159.64 140.338 159.64H146.699C148.176 159.64 149.312 160.776 149.312 162.253V168.386C149.312 169.863 150.448 170.999 151.924 170.999H158.285C159.762 170.999 160.898 169.863 160.898 168.386V162.253C160.898 160.776 159.762 159.64 158.285 159.64H151.924C150.448 159.64 149.312 158.504 149.312 157.028V150.894C149.312 149.417 148.176 148.281 146.699 148.281H140.338C138.862 148.281 137.726 147.146 137.726 145.669V139.535C137.726 138.059 136.59 136.923 135.113 136.923H128.753C127.276 136.923 126.14 135.787 126.14 134.31V128.177C126.14 126.7 125.004 125.564 123.528 125.564H117.167C115.69 125.564 114.554 126.7 114.554 128.177V134.31Z" fill="#FAFAFA"/>
<path d="M170.764 91.4883V157.028C170.764 158.504 171.9 159.64 173.377 159.64H179.738C181.214 159.64 182.35 160.776 182.35 162.253V168.386C182.35 169.863 183.486 170.999 184.963 170.999H226.081C227.558 170.999 228.693 169.863 228.693 168.386V162.253C228.693 160.776 229.829 159.64 231.306 159.64H237.667C239.143 159.64 240.279 158.504 240.279 157.028V148.281H228.693V157.028C228.693 158.504 227.558 159.64 226.081 159.64H184.963C183.486 159.64 182.35 158.504 182.35 157.028V91.4883H170.764Z" fill="#FAFAFA"/>
<path d="M261.732 159.64V102.847H305.463C306.939 102.847 308.075 103.983 308.075 105.459V157.028C308.075 158.504 306.939 159.64 305.463 159.64H261.732ZM250.146 168.386C250.146 169.863 251.282 170.999 252.759 170.999H305.463C306.939 170.999 308.075 169.863 308.075 168.386V162.253C308.075 160.776 309.211 159.64 310.688 159.64H317.048C318.525 159.64 319.661 158.504 319.661 157.028V105.459C319.661 103.983 318.525 102.847 317.048 102.847H310.688C309.211 102.847 308.075 101.711 308.075 100.234V94.1008C308.075 92.6241 306.939 91.4883 305.463 91.4883H252.759C251.282 91.4883 250.146 92.6241 250.146 94.1008V168.386Z" fill="#FAFAFA"/>
</svg>
